#!OML:ASF C:\ViconDB\ViconDB\414\Spring2016\042216\male.ASF
:FULLY-SPECIFIED
:DEGREES
866
root 44.5356 17.8946 10.9193 902.344 76.7661 1261.82
lowerback -2.1274 -1.43815 4.68776
upperback -0.311982 -2.01649 -0.470546
thorax 0.693102 -0.995701 -3.16253
lowerneck 3.29871 16.2532 1.36723
upperneck -1.75523 21.6805 -3.37622
head -0.538028 10.8768 -1.45458
rclavicle -5.26841e-014 3.08116e-015
rhumerus -28.7107 -4.22971 -89.5603
rradius 25.5772
rwrist 36.8818
rhand 13.9685 -19.3522
rfingers 7.12502
rthumb 38.8798 -44.9066
lclavicle -5.26841e-014 3.08116e-015
lhumerus -39.2812 25.3907 76.1457
lradius 30.6128
lwrist -18.8758
lhand -8.13005 15.4764
lfingers 7.12502
lthumb 17.7837 44.6832
rfemur -7.32449 13.1866 17.3496
rtibia 22.1507
rfoot -16.8509 4.19165
rtoes -13.9434
lfemur -6.70994 -7.73138 -19.3867
ltibia 24.0958
lfoot -22.8305 -0.0580704
ltoes -18.1297
867
root 44.5565 17.894 10.9223 901.779 76.2201 1261.34
lowerback -2.07318 -1.43806 4.77819
upperback -0.356049 -2.01416 -0.487227
thorax 0.613821 -0.997064 -3.22793
lowerneck 3.35148 16.1516 1.55681
upperneck -1.77893 21.5523 -3.39685
head -0.535413 10.8122 -1.48925
rclavicle 1.19116e-014 -8.94531e-016
rhumerus -28.6316 -4.84146 -89.3231
rradius 25.5427
rwrist 36.6715
rhand 13.7386 -19.4926
rfingers 7.12502
rthumb 38.663 -45.1083
lclavicle 1.19116e-014 -8.94531e-016
lhumerus -39.7465 25.5557 75.904
lradius 30.066
lwrist -20.0997
lhand -7.78725 14.4243
lfingers 7.12502
lthumb 18.1135 43.6009
rfemur -6.87901 14.9017 17.4821
rtibia 22.1811
rfoot -17.3696 1.92544
rtoes -14.1714
lfemur -6.6985 -7.83807 -19.508
ltibia 24.2506
lfoot -23.0346 -0.436247
ltoes -18.0103
868
root 44.5758 17.8882 10.9205 901.319 75.7403 1260.96
lowerback -2.04875 -1.40893 4.98285
upperback -0.387524 -1.97714 -0.540222
thorax 0.562211 -0.980149 -3.39545
lowerneck 3.25579 16.0904 1.57497
upperneck -1.68822 21.4739 -3.14963
head -0.519466 10.7681 -1.40916
rclavicle -6.32694e-015 -8.54774e-015
rhumerus -28.581 -5.34206 -89.1363
rradius 25.4738
rwrist 37.1515
rhand 12.7539 -19.5194
rfingers 7.12502
rthumb 37.7334 -45.3907
lclavicle -6.32694e-015 -8.54774e-015
lhumerus -40.1031 25.0358 76.0537
lradius 29.8685
lwrist -20.3786
lhand -7.41343 14.7248
lfingers 7.12502
lthumb 18.4732 43.8676
rfemur -6.52003 15.8421 17.5524
rtibia 22.196
rfoot -17.8086 0.56928
rtoes -14.3406
lfemur -6.6623 -8.0307 -19.6353
ltibia 24.4008
lfoot -22.9382 -0.63211
ltoes -18.0976
869
root 44.5945 17.8824 10.9296 900.698 75.2043 1260.4
lowerback -2.02873 -1.41489 4.97123
upperback -0.409182 -1.98298 -0.581129
thorax 0.527066 -0.984492 -3.43025
lowerneck 3.32005 16.0291 1.54307
upperneck -1.83691 21.3899 -2.9498
head -0.604367 10.7234 -1.36669
rclavicle 1.54835e-014 6.16232e-015
rhumerus -28.4794 -6.02089 -88.9558
rradius 25.5053
rwrist 36.9897
rhand 12.6855 -19.7054
rfingers 7.12502
rthumb 37.6687 -45.594
lclavicle 1.54835e-014 6.16232e-015
lhumerus -40.4947 24.849 76.0034
lradius 29.7814
lwrist -21.2676
lhand -6.40742 14.6594
lfingers 7.12502
lthumb 19.4407 43.7076
rfemur -6.12069 17.1687 17.6692
rtibia 22.2003
rfoot -18.3427 -1.20204
rtoes -14.828
lfemur -6.63774 -8.11742 -19.7521
ltibia 24.5413
lfoot -23.1284 -1.03191
ltoes -17.8596
870
root 44.6124 17.874 10.9382 900.467 74.7014 1260.22
lowerback -2.01868 -1.42618 5.02887
upperback -0.441442 -1.99763 -0.576231
thorax 0.484981 -0.993379 -3.45691
lowerneck 3.33599 15.9751 1.6786
upperneck -1.86089 21.3232 -2.93401
head -0.604052 10.6889 -1.38134
rclavicle 6.03777e-014 3.37934e-015
rhumerus -28.4126 -6.59395 -88.7944
rradius 25.6405
rwrist 37.156
rhand 12.6954 -19.7862
rfingers 7.12502
rthumb 37.6781 -45.6723
lclavicle 6.03777e-014 3.37934e-015
lhumerus -40.8636 24.5098 76.1519
lradius 29.6743
lwrist -21.4405
lhand -6.12577 14.402
lfingers 7.12502
lthumb 19.7114 43.4226
rfemur -5.7938 18.4549 17.8921
rtibia 22.2761
rfoot -18.7739 -2.96965
rtoes -14.9173
lfemur -6.60461 -8.11467 -19.7492
ltibia 24.6006
lfoot -23.4455 -1.49568
ltoes -17.6258
871
root 44.6319 17.8703 10.9462 899.892 74.2234 1259.66
lowerback -2.0757 -1.43618 4.95717
upperback -0.4692 -2.01164 -0.567304
thorax 0.489823 -1.00073 -3.4089
lowerneck 3.3507 15.9142 1.79659
upperneck -1.84276 21.2468 -3.01566
head -0.581546 10.6515 -1.41793
rclavicle 3.74212e-014 -8.74653e-015
rhumerus -28.3077 -7.92023 -88.333
rradius 25.6376
rwrist 38.3524
rhand 12.6851 -19.4049
rfingers 7.12502
rthumb 37.6684 -45.2936
lclavicle 3.74212e-014 -8.74653e-015
lhumerus -41.1883 24.307 76.3088
lradius 29.5267
lwrist -21.7433
lhand -6.24315 14.5776
lfingers 7.12502
lthumb 19.5986 43.6097
rfemur -5.56395 19.1731 17.9452
rtibia 22.3931
rfoot -19.0904 -4.27802
rtoes -14.6705
lfemur -6.59007 -7.96503 -19.8527
ltibia 24.5949
lfoot -23.5482 -2.08169
ltoes -17.8285
